<svg xmlns="http://www.w3.org/2000/svg" width="48" height="48" fill="none"><g clip-path="url(#a)"><path fill="#F6F9F9" d="M45.238 9.603 26.615 8.087 2.764 9.603v37.222c0 .65.526 1.175 1.174 1.175h40.125c.649 0 1.175-.526 1.175-1.175z"/><path fill="#E7ECF1" d="M45.238 9.603 41.375 7.67v29.442a8.955 8.955 0 0 1-8.955 8.956H2.764v.756c0 .65.526 1.175 1.174 1.175h40.125c.649 0 1.175-.526 1.175-1.175z"/><path fill="#61A2F9" d="M44.063 2.74H3.938c-.648 0-1.174.526-1.174 1.175v5.688h42.474V3.915c0-.65-.526-1.175-1.175-1.175"/><path fill="#5490F9" d="M44.064 2.74h-2.689v6.863h3.863V3.915c0-.65-.526-1.175-1.175-1.175"/><path fill="#DAE4EA" d="M8.768 6.466h-.66a1.17 1.17 0 0 1-1.17-1.17V1.17c0-.646.524-1.17 1.17-1.17h.66c.646 0 1.17.524 1.17 1.17v4.125a1.17 1.17 0 0 1-1.17 1.17M16.55 6.466h-.66a1.17 1.17 0 0 1-1.171-1.17V1.17c0-.646.524-1.17 1.17-1.17h.66c.647 0 1.17.524 1.17 1.17v4.125a1.17 1.17 0 0 1-1.17 1.17M24.33 6.466h-.66a1.17 1.17 0 0 1-1.17-1.17V1.17c0-.646.524-1.17 1.17-1.17h.66c.647 0 1.17.524 1.17 1.17v4.125a1.17 1.17 0 0 1-1.17 1.17M32.112 6.466h-.66a1.17 1.17 0 0 1-1.17-1.17V1.17c0-.646.523-1.17 1.17-1.17h.66c.646 0 1.17.524 1.17 1.17v4.125a1.17 1.17 0 0 1-1.17 1.17M39.895 6.466h-.66a1.17 1.17 0 0 1-1.17-1.17V1.17c0-.646.523-1.17 1.17-1.17h.66c.646 0 1.17.524 1.17 1.17v4.125a1.17 1.17 0 0 1-1.17 1.17M15.78 18.924v-1.698c0-.21.17-.38.379-.38h21.457c.21 0 .38.17.38.38v1.698c0 .21-.17.38-.38.38H16.16a.38.38 0 0 1-.38-.38M15.78 23.84v-1.7c0-.209.17-.378.379-.378h21.457c.21 0 .38.17.38.379v1.699c0 .21-.17.38-.38.38H16.16a.38.38 0 0 1-.38-.38M15.78 28.755v-1.699c0-.21.17-.379.379-.379h21.457c.21 0 .38.17.38.38v1.698c0 .21-.17.38-.38.38H16.16a.38.38 0 0 1-.38-.38M15.78 33.67v-1.698c0-.21.17-.38.379-.38h21.457c.21 0 .38.17.38.38v1.698c0 .21-.17.38-.38.38H16.16a.38.38 0 0 1-.38-.38M15.78 38.586v-1.699c0-.21.17-.38.379-.38h21.457c.21 0 .38.17.38.38v1.699c0 .21-.17.38-.38.38H16.16a.38.38 0 0 1-.38-.38M10.008 18.924v-1.698c0-.21.17-.38.38-.38h2.114c.21 0 .38.17.38.38v1.698c0 .21-.17.38-.38.38h-2.115a.38.38 0 0 1-.38-.38M10.008 23.84v-1.7c0-.209.17-.378.38-.378h2.114c.21 0 .38.17.38.379v1.699c0 .21-.17.38-.38.38h-2.115a.38.38 0 0 1-.38-.38M10.008 28.755v-1.699c0-.21.17-.379.38-.379h2.114c.21 0 .38.17.38.38v1.698c0 .21-.17.38-.38.38h-2.115a.38.38 0 0 1-.38-.38M10.008 33.67v-1.698c0-.21.17-.38.38-.38h2.114c.21 0 .38.17.38.38v1.698c0 .21-.17.38-.38.38h-2.115a.38.38 0 0 1-.38-.38M10.008 38.586v-1.699c0-.21.17-.38.38-.38h2.114c.21 0 .38.17.38.38v1.699c0 .21-.17.38-.38.38h-2.115a.38.38 0 0 1-.38-.38"/></g><defs><clipPath id="a"><path fill="#fff" d="M0 0h48v48H0z"/></clipPath></defs></svg>