<svg xmlns="http://www.w3.org/2000/svg" width="48" height="38" fill="none"><path fill="#FFDD27" d="M26.452 32.82h-4.903l-.272 1.574a2.763 2.763 0 1 0 5.446 0z"/><path fill="#F9C91A" d="M26.76 34.752a3 3 0 0 0-.038-.358l-.27-1.573-3.847-.887-1.057.887-.271 1.573q-.032.18-.039.358z"/><path fill="#FFDD27" d="M36 25.145a3.6 3.6 0 0 1-.48-1.794v-6.292c0-5.105-3.322-9.434-7.92-10.946a.23.23 0 0 1-.138-.326c.27-.582.398-1.244.337-1.94-.133-1.525-1.437-3.473-3.794-3.473a3.818 3.818 0 0 0-3.479 5.388.262.262 0 0 1-.16.363c-4.58 1.521-7.885 5.842-7.885 10.934v6.292c0 .63-.166 1.249-.481 1.794L24.256 27.6zM22.648 4.188a1.352 1.352 0 1 1 2.704 0 1.352 1.352 0 0 1-2.704 0"/><path fill="#F9C91A" d="M31.656 14.645v6.291c0 .63.166 1.249.48 1.794l1.395 2.415 1.86.748.609-.748a3.6 3.6 0 0 1-.481-1.794v-6.292c0-4.938-3.107-9.15-7.472-10.788a11.49 11.49 0 0 1 3.609 8.374"/><path fill="#FFDD27" d="M48 18.073c0 3.817-1.38 7.311-3.666 10.012-.453.535-1.27.56-1.766.065l-.006-.006a1.21 1.21 0 0 1-.06-1.64 13.03 13.03 0 0 0 3.083-8.431c0-3.21-1.16-6.153-3.083-8.432a1.21 1.21 0 0 1 .06-1.639l.007-.007a1.2 1.2 0 0 1 1.766.065A15.45 15.45 0 0 1 48 18.073"/><path fill="#FFDD27" d="M43.171 18.073c0 2.454-.832 4.718-2.23 6.523a1.207 1.207 0 0 1-1.808.118l-.002-.001a1.21 1.21 0 0 1-.097-1.594 8.23 8.23 0 0 0 1.723-5.046c0-1.899-.644-3.65-1.723-5.046a1.21 1.21 0 0 1 .097-1.594l.002-.001a1.207 1.207 0 0 1 1.809.118 10.62 10.62 0 0 1 2.23 6.523M0 18.073c0 3.817 1.38 7.311 3.666 10.012.452.535 1.27.56 1.765.065l.007-.006a1.21 1.21 0 0 0 .06-1.64 13.03 13.03 0 0 1-3.083-8.431c0-3.21 1.16-6.153 3.083-8.432a1.21 1.21 0 0 0-.06-1.639l-.008-.007a1.2 1.2 0 0 0-1.765.065A15.45 15.45 0 0 0 0 18.073"/><path fill="#FFDD27" d="M4.828 18.073c0 2.454.832 4.718 2.23 6.523a1.207 1.207 0 0 0 1.809.118l.001-.001c.43-.43.47-1.112.098-1.594a8.23 8.23 0 0 1-1.723-5.046c0-1.899.643-3.65 1.723-5.046a1.21 1.21 0 0 0-.098-1.594l-.001-.001a1.207 1.207 0 0 0-1.81.118 10.63 10.63 0 0 0-2.229 6.523"/><path fill="#F9C91A" d="M24 8.726c-.7 0-1.372-.155-1.997-.462a.725.725 0 0 1 .638-1.3A3.06 3.06 0 0 0 24 7.276a3.06 3.06 0 0 0 1.348-.308.724.724 0 1 1 .633 1.303A4.5 4.5 0 0 1 24 8.726"/><path fill="#F6E266" d="M36 25.145H12l-4.077 7.06a.41.41 0 0 0 .355.616H39.72a.41.41 0 0 0 .355-.615z"/><path fill="#F4D820" d="M40.076 32.206 36 25.145h-2.47l.563.975c1.1 1.905-.275 4.286-2.474 4.286H8.962l-1.04 1.8a.41.41 0 0 0 .356.614H39.72a.41.41 0 0 0 .355-.614"/></svg>