<svg xmlns="http://www.w3.org/2000/svg" width="48" height="43" fill="none"><path fill="#F6F9F9" d="M44.055 5.78 24.739 4.504 0 5.78v31.349c0 .546.545.989 1.218.989h41.618c.672 0 1.218-.443 1.218-.99z"/><path fill="#E7ECF1" d="m44.054 5.78-3.258-1.627V28.95c0 4.165-3.38 7.542-7.55 7.542H.017v.637c0 .547.443.99.99.99h42.055a.99.99 0 0 0 .99-.99z"/><path fill="#61A2F9" d="M43.064 0H1.009a.99.99 0 0 0-.99.99L0 5.78h44.055V.99a.99.99 0 0 0-.991-.99"/><path fill="#5490F9" d="M43.064 0h-2.267v5.78h3.258V.99a.99.99 0 0 0-.991-.99"/><path fill="#DAE4EA" d="M3.596 26.084v-1.43c0-.177.238-.32.53-.32h30.05c.293 0 .531.143.531.32v1.43c0 .177-.238.32-.531.32H4.126c-.292 0-.53-.143-.53-.32M3.596 30.224v-1.431c0-.177.19-.32.426-.32h24.103c.235 0 .426.143.426.32v1.43c0 .177-.19.32-.426.32H4.022c-.235 0-.426-.142-.426-.32M3.596 19.572v-7.867c0-.97.855-1.757 1.911-1.757H16.16c1.055 0 1.911.787 1.911 1.757v7.867c0 .97-.855 1.757-1.912 1.757H5.509c-1.056 0-1.912-.786-1.912-1.757M20.234 19.572v-7.867c0-.97.856-1.757 1.912-1.757h10.651c1.056 0 1.912.787 1.912 1.757v7.867c0 .97-.856 1.757-1.912 1.757H22.146c-1.056 0-1.912-.786-1.912-1.757"/><path fill="#C8D2D8" d="m47.598 32.087-1.313-.286a7 7 0 0 0-.423-1.017l.727-1.13a.51.51 0 0 0-.068-.636l-2.046-2.043a.51.51 0 0 0-.637-.069l-1.13.727a7 7 0 0 0-1.02-.423l-.285-1.311a.51.51 0 0 0-.499-.402h-2.892a.51.51 0 0 0-.5.402l-.285 1.311q-.525.171-1.018.423l-1.13-.727a.51.51 0 0 0-.638.069l-2.046 2.043a.51.51 0 0 0-.069.637l.728 1.129a7 7 0 0 0-.423 1.018l-1.313.285a.51.51 0 0 0-.402.498v2.889c0 .24.168.447.402.498l1.313.285q.171.525.423 1.018l-.728 1.129a.51.51 0 0 0 .07.636l2.045 2.044c.17.17.435.198.637.068l1.13-.726q.495.25 1.02.422l.285 1.312a.51.51 0 0 0 .499.402h2.892a.51.51 0 0 0 .499-.402l.285-1.312q.526-.17 1.02-.422l1.13.726c.202.13.467.101.637-.068l2.046-2.044a.51.51 0 0 0 .069-.636l-.728-1.13q.251-.493.423-1.017l1.313-.285a.51.51 0 0 0 .403-.498v-2.89a.51.51 0 0 0-.403-.497m-5.076 1.943a3.065 3.065 0 0 1-3.064 3.06 3.065 3.065 0 0 1-3.063-3.06 3.065 3.065 0 0 1 3.063-3.06 3.066 3.066 0 0 1 3.064 3.06"/></svg>