<svg xmlns="http://www.w3.org/2000/svg" width="107" height="125" fill="none"><path fill="#000" d="M6.072 114.636v.888h-2.28V123H2.7v-7.476H.408v-.888zm4.212 8.472a3.4 3.4 0 0 1-1.68-.42 3.05 3.05 0 0 1-1.176-1.188q-.42-.78-.42-1.8 0-1.008.432-1.776.444-.78 1.2-1.188a3.4 3.4 0 0 1 1.692-.42q.936 0 1.692.42.756.408 1.188 1.176.444.768.444 1.788t-.456 1.8a3.1 3.1 0 0 1-1.212 1.188q-.768.42-1.704.42m0-.96q.588 0 1.104-.276t.828-.828q.324-.552.324-1.344t-.312-1.344a2 2 0 0 0-.816-.816 2.24 2.24 0 0 0-1.092-.276q-.6 0-1.104.276a1.95 1.95 0 0 0-.792.816q-.3.552-.3 1.344 0 .804.288 1.356.3.552.792.828.492.264 1.08.264m6.14-4.824v3.876q0 .48.204.684.204.192.708.192h.804V123h-.984q-.912 0-1.368-.42t-.456-1.38v-3.876h-.852v-.9h.852v-1.656h1.092v1.656h1.716v.9zm2.631 2.364q0-1.008.408-1.764a2.96 2.96 0 0 1 1.116-1.188 3.1 3.1 0 0 1 1.596-.42q.864 0 1.5.372t.948.936v-1.2h1.104V123h-1.104v-1.224q-.324.576-.972.96-.636.372-1.488.372a3 3 0 0 1-1.584-.432 3.03 3.03 0 0 1-1.116-1.212q-.408-.78-.408-1.776m5.568.012q0-.744-.3-1.296a2.07 2.07 0 0 0-.816-.84 2.14 2.14 0 0 0-1.116-.3q-.612 0-1.116.288a2.1 2.1 0 0 0-.804.84q-.3.552-.3 1.296 0 .756.3 1.32.3.552.804.852a2.2 2.2 0 0 0 1.116.288q.612 0 1.116-.288.516-.3.816-.852.3-.564.3-1.308m4.041-5.58V123h-1.092v-8.88zm6.393 3.204v3.876q0 .48.204.684.204.192.708.192h.804V123h-.984q-.912 0-1.368-.42t-.456-1.38v-3.876h-.852v-.9h.852v-1.656h1.092v1.656h1.716v.9zm2.63 2.364q0-1.008.409-1.764a2.96 2.96 0 0 1 1.116-1.188 3.1 3.1 0 0 1 1.596-.42q.864 0 1.5.372t.948.936v-1.2h1.104V123h-1.104v-1.224q-.324.576-.972.96-.636.372-1.488.372a3 3 0 0 1-1.584-.432 3.03 3.03 0 0 1-1.116-1.212q-.408-.78-.408-1.776m5.569.012q0-.744-.3-1.296a2.07 2.07 0 0 0-.816-.84 2.14 2.14 0 0 0-1.116-.3q-.612 0-1.116.288a2.1 2.1 0 0 0-.804.84q-.3.552-.3 1.296 0 .756.3 1.32.3.552.804.852a2.2 2.2 0 0 0 1.116.288q.612 0 1.116-.288.516-.3.816-.852.3-.564.3-1.308m6.621 3.3-2.58-2.904V123h-1.092v-8.88h1.092v5.22l2.532-2.916h1.524l-3.096 3.276 3.108 3.3zm8.504-3.54q0 .312-.036.66h-5.256q.06.972.66 1.524.612.54 1.476.54.708 0 1.176-.324.48-.336.672-.888h1.176a2.86 2.86 0 0 1-1.056 1.548q-.792.588-1.968.588-.936 0-1.68-.42a3 3 0 0 1-1.152-1.188q-.42-.78-.42-1.8t.408-1.788a2.84 2.84 0 0 1 1.14-1.176q.744-.42 1.704-.42.936 0 1.656.408t1.104 1.128q.396.708.396 1.608m-1.128-.228q0-.624-.276-1.068a1.74 1.74 0 0 0-.756-.684q-.468-.24-1.044-.24-.828 0-1.416.528-.576.528-.66 1.464zm5.773-2.928q1.2 0 1.944.732.744.72.744 2.088V123h-1.08v-3.72q0-.984-.492-1.5-.492-.528-1.344-.528-.864 0-1.38.54-.504.54-.504 1.572V123h-1.092v-6.576h1.092v.936q.324-.504.876-.78a2.8 2.8 0 0 1 1.236-.276m10 6.804q-.757 0-1.357-.252a2.36 2.36 0 0 1-.948-.72 1.95 1.95 0 0 1-.384-1.068h1.128q.048.492.456.804.42.312 1.092.312.624 0 .984-.276t.36-.696q0-.432-.384-.636-.384-.216-1.188-.42a10 10 0 0 1-1.2-.384 2.3 2.3 0 0 1-.792-.588q-.324-.396-.324-1.032 0-.504.3-.924t.852-.66a3 3 0 0 1 1.26-.252q1.092 0 1.764.552t.72 1.512h-1.092a1.12 1.12 0 0 0-.42-.828q-.372-.312-1.008-.312-.588 0-.936.252a.78.78 0 0 0-.348.66q0 .324.204.54.216.204.528.336.324.12.888.276.708.192 1.152.384.444.18.756.552.324.372.336.972 0 .54-.3.972t-.852.684q-.54.24-1.248.24m9.941-3.648q0 .312-.036.66h-5.256q.06.972.66 1.524.612.54 1.476.54.708 0 1.176-.324.48-.336.672-.888h1.176a2.86 2.86 0 0 1-1.056 1.548q-.792.588-1.968.588-.936 0-1.68-.42a3 3 0 0 1-1.152-1.188q-.42-.78-.42-1.8t.408-1.788a2.84 2.84 0 0 1 1.14-1.176q.744-.42 1.704-.42.936 0 1.656.408t1.104 1.128q.396.708.396 1.608m-1.128-.228q0-.624-.276-1.068a1.74 1.74 0 0 0-.756-.684q-.468-.24-1.044-.24-.828 0-1.416.528-.576.528-.66 1.464zm2.161.456q0-1.008.408-1.764a2.96 2.96 0 0 1 1.116-1.188 3.1 3.1 0 0 1 1.596-.42q.864 0 1.5.372t.948.936v-1.2h1.104V123h-1.104v-1.224q-.324.576-.972.96-.636.372-1.488.372a3 3 0 0 1-1.584-.432 3.03 3.03 0 0 1-1.116-1.212q-.408-.78-.408-1.776m5.568.012q0-.744-.3-1.296a2.07 2.07 0 0 0-.816-.84 2.14 2.14 0 0 0-1.116-.3q-.612 0-1.116.288a2.1 2.1 0 0 0-.804.84q-.3.552-.3 1.296 0 .756.3 1.32.3.552.804.852a2.2 2.2 0 0 0 1.116.288q.612 0 1.116-.288.516-.3.816-.852.3-.564.3-1.308m4.282-2.376v3.876q0 .48.204.684.204.192.708.192h.804V123h-.984q-.912 0-1.368-.42t-.456-1.38v-3.876h-.852v-.9h.852v-1.656h1.092v1.656h1.716v.9z" opacity=".4"/><path fill="#000" d="M1.32 83.112q.12-2.4 1.68-3.696 1.584-1.32 4.152-1.32 1.752 0 3 .624 1.248.6 1.872 1.656.648 1.032.648 2.352 0 1.512-.792 2.568-.768 1.032-1.848 1.392v.096q1.392.432 2.16 1.536.792 1.104.792 2.832 0 1.44-.672 2.568-.648 1.128-1.944 1.776-1.272.624-3.072.624-2.712 0-4.416-1.368t-1.8-4.032h3.264q.048 1.176.792 1.896.768.696 2.088.696 1.224 0 1.872-.672.672-.696.672-1.776 0-1.44-.912-2.064t-2.832-.624h-.696v-2.76h.696q3.408 0 3.408-2.28 0-1.032-.624-1.608-.6-.576-1.752-.576-1.128 0-1.752.624-.6.6-.696 1.536zm23.391-.24q-.24-1.008-.84-1.512-.576-.504-1.68-.504-1.656 0-2.448 1.344-.768 1.32-.792 4.32.576-.96 1.68-1.488a5.3 5.3 0 0 1 2.4-.552q1.56 0 2.76.672t1.872 1.968q.672 1.272.672 3.072 0 1.704-.696 3.048a4.86 4.86 0 0 1-1.992 2.064q-1.32.744-3.144.744-2.496 0-3.936-1.104-1.416-1.104-1.992-3.072-.552-1.992-.552-4.896 0-4.392 1.512-6.624 1.512-2.256 4.776-2.256 2.52 0 3.912 1.368t1.608 3.408zm-2.448 4.368q-1.272 0-2.136.744t-.864 2.16.792 2.232q.816.816 2.28.816 1.296 0 2.04-.792.768-.792.768-2.136 0-1.392-.744-2.208-.72-.816-2.136-.816m10.6 8.928q-.912 0-1.512-.552a1.93 1.93 0 0 1-.576-1.416q0-.84.576-1.392.6-.576 1.512-.576.888 0 1.464.576.576.552.576 1.392t-.576 1.416q-.576.552-1.464.552M36.817 81.6v-3.096h5.784V96h-3.456V81.6zM54.177 96l-4.513-5.664V96h-3.36V78.24h3.36v10.104l4.464-5.64h4.368l-5.856 6.672L58.544 96z" opacity=".8"/><path fill="#000" d="M86.456 21.32v-.996h2.256V29h-1.104v-7.68zm4.132 3.252q0-2.064.672-3.216.672-1.164 2.352-1.164 1.668 0 2.34 1.164.672 1.152.672 3.216 0 2.1-.672 3.264T93.612 29q-1.68 0-2.352-1.164t-.672-3.264m4.956 0q0-1.044-.144-1.764-.132-.732-.564-1.176-.42-.444-1.224-.444-.816 0-1.248.444-.42.444-.564 1.176-.132.72-.132 1.764 0 1.08.132 1.812.144.732.564 1.176.432.444 1.248.444.804 0 1.224-.444.432-.444.564-1.176.144-.732.144-1.812m2.339-2.292q0-.816.492-1.296.492-.492 1.26-.492t1.26.492q.492.48.492 1.296 0 .828-.492 1.32-.492.48-1.26.48t-1.26-.48q-.492-.492-.492-1.32m7.008-1.656L100.031 29h-1.08l4.86-8.376zm-5.256.54a.8.8 0 0 0-.648.288q-.228.276-.228.828t.228.84a.8.8 0 0 0 .648.288.8.8 0 0 0 .648-.288q.24-.3.24-.84 0-.552-.24-.828a.8.8 0 0 0-.648-.288m2.844 6.18q0-.828.492-1.308.492-.492 1.26-.492t1.248.492q.492.48.492 1.308 0 .816-.492 1.308-.48.492-1.248.492t-1.26-.48q-.492-.492-.492-1.32m1.74-1.116a.8.8 0 0 0-.648.288q-.24.276-.24.828 0 .54.24.828.24.276.648.276t.648-.276q.24-.288.24-.828 0-.552-.24-.828a.8.8 0 0 0-.648-.288" opacity=".5"/><path fill="#62CA76" d="m73 24.12-3.712 3.713-1.06-1.06L73 22l4.773 4.773-1.06 1.06z"/><rect width="50" height="50" fill="#FF553E" fill-opacity=".15" rx="11"/><g clip-path="url(#a)"><path fill="#FF553E" d="M14.334 29.333a6.667 6.667 0 0 1 13.333 0h-1.666a5 5 0 0 0-10 0zm6.667-7.5c-2.763 0-5-2.237-5-5s2.237-5 5-5 5 2.238 5 5-2.238 5-5 5m0-1.666a3.332 3.332 0 1 0 0-6.667 3.332 3.332 0 1 0 0 6.666"/></g><defs><clipPath id="a"><path fill="#fff" d="M11 11h20v20H11z"/></clipPath></defs></svg>