<svg xmlns="http://www.w3.org/2000/svg" width="475" height="199" fill="none"><g filter="url(#a)"><rect width="386.75" height="91" x="44" fill="#fff" rx="30"/></g><rect width="45.5" height="45.5" x="360.225" y="22.75" fill="#FF553E" opacity=".05" rx="13"/><g clip-path="url(#b)"><path fill="#FF553E" d="M375.391 54.98a7.584 7.584 0 0 1 15.166 0h-1.896a5.69 5.69 0 0 0-5.687-5.688 5.69 5.69 0 0 0-5.688 5.687zm7.583-8.532a5.687 5.687 0 0 1-5.688-5.687 5.687 5.687 0 0 1 5.688-5.688 5.686 5.686 0 0 1 5.687 5.688 5.686 5.686 0 0 1-5.687 5.687m0-1.896a3.79 3.79 0 1 0 0-7.583 3.79 3.79 0 1 0 0 7.583"/></g><rect width="45.5" height="45.5" x="262.4" y="22.75" fill="#FF553E" opacity=".05" rx="13"/><g clip-path="url(#c)"><path fill="#FF553E" d="M289.891 36.969h3.791a.95.95 0 0 1 .948.948v15.166a.95.95 0 0 1-.948.948H276.62a.945.945 0 0 1-.948-.948V37.917a.947.947 0 0 1 .948-.948h3.791v-1.896h1.896v1.896h5.688v-1.896h1.896zm-1.896 1.896h-5.688v1.895h-1.896v-1.895h-2.843v3.791h15.166v-3.791h-2.843v1.895h-1.896zm4.739 5.687h-15.166v7.584h15.166z"/></g><rect width="45.5" height="45.5" x="164.574" y="22.75" fill="#FF553E" opacity=".05" rx="13"/><g clip-path="url(#d)"><path fill="#FF553E" d="M179.742 50.24v4.74h-1.896V36.968h18.141a.474.474 0 0 1 .412.709l-3.387 5.926 3.387 5.927a.5.5 0 0 1 .063.236.48.48 0 0 1-.238.41.5.5 0 0 1-.237.063zm0-11.375v9.479h13.796l-2.71-4.74 2.71-4.74z"/></g><rect width="45.5" height="45.5" x="66.75" y="22.75" fill="#FF553E" rx="13"/><g clip-path="url(#e)"><path fill="#fff" d="M93.292 50.24v-.948h-2.844v-2.844h2.844v1.896h1.895v1.896h-.947v1.895h-1.896v1.896h-1.896v-2.843h1.896v-.948zm4.74 3.791H94.24v-1.896h1.895V50.24h1.896zM80.968 36.97h7.583v7.583H80.97zm1.896 1.896v3.791h3.791v-3.791zm7.583-1.896h7.583v7.583h-7.583zm1.896 1.896v3.791h3.791v-3.791zm-11.375 7.583h7.583v7.583H80.97zm1.896 1.896v3.791h3.791v-3.791zm12.323-1.896h2.843v1.896h-2.844zm-11.376-6.635h1.896v1.895h-1.895zm0 9.479h1.896v1.895h-1.895zm9.48-9.48h1.895v1.896h-1.895z"/></g><defs><clipPath id="b"><path fill="#fff" d="M371.6 34.125h22.75v22.75H371.6z"/></clipPath><clipPath id="c"><path fill="#fff" d="M273.775 34.125h22.75v22.75h-22.75z"/></clipPath><clipPath id="d"><path fill="#fff" d="M175.949 34.125h22.75v22.75h-22.75z"/></clipPath><clipPath id="e"><path fill="#fff" d="M78.125 34.125h22.75v22.75h-22.75z"/></clipPath><filter id="a" width="474.75" height="199" x="0" y="0" color-interpolation-filters="sRGB" filterUnits="userSpaceOnUse"><feFlood flood-opacity="0" result="BackgroundImageFix"/><feColorMatrix in="SourceAlpha" result="hardAlpha" values="0 0 0 0 0 0 0 0 0 0 0 0 0 0 0 0 0 0 127 0"/><feMorphology in="SourceAlpha" radius="20" result="effect1_dropShadow_1458_7"/><feOffset dy="64"/><feGaussianBlur stdDeviation="32"/><feComposite in2="hardAlpha" operator="out"/><feColorMatrix values="0 0 0 0 0 0 0 0 0 0 0 0 0 0 0 0 0 0 0.1 0"/><feBlend in2="BackgroundImageFix" result="effect1_dropShadow_1458_7"/><feBlend in="SourceGraphic" in2="effect1_dropShadow_1458_7" result="shape"/></filter></defs></svg>