<svg xmlns="http://www.w3.org/2000/svg" width="438" height="336" fill="none"><g filter="url(#a)"><rect width="349.355" height="228" x="44" fill="#fff" rx="19"/></g><path stroke="#D26D60" stroke-opacity=".3" stroke-width="2" d="M92.644 183.871V68.032M131.258 183.871V68.032M169.871 183.871V68.032M217.678 183.871V68.032M263.645 183.871V68.032M311.451 183.871V68.032"/><path fill="#FFC6BE" fill-rule="evenodd" d="M367.613 184.639H69.743v-32.018s1.104-8.105 12.537-8.105 11.998-1.371 17.155-5.397 14.853 1.797 22.922 0 7.432-12.177 21.666-11.149 13.106-11.886 29.749-14.781 40.684 1.465 49.939-5.19c9.255-6.654 15.058-12.252 39.432-12.252s24.182-3.204 43.303-12.682c19.122-9.479 26.35.26 38.825 4.88 12.474 4.62 22.342-7.166 22.342-7.166z" clip-rule="evenodd" opacity=".2"/><path fill="#000" d="M74.082 37.84q-1.022 0-1.848-.35a3.03 3.03 0 0 1-1.288-1.008q-.475-.658-.49-1.554h2.1q.042.602.42.952.392.35 1.064.35.686 0 1.078-.322a1.09 1.09 0 0 0 .392-.868 1 1 0 0 0-.266-.714 1.8 1.8 0 0 0-.672-.434 9 9 0 0 0-1.092-.364 13 13 0 0 1-1.554-.546 2.9 2.9 0 0 1-1.022-.826q-.42-.56-.42-1.484 0-.868.434-1.512.434-.645 1.218-.98.784-.35 1.792-.35 1.512 0 2.45.742.953.728 1.05 2.044h-2.156a1.09 1.09 0 0 0-.434-.826q-.392-.336-1.05-.336-.573 0-.924.294-.336.294-.336.854 0 .391.252.658.266.252.644.42.391.154 1.092.364.953.28 1.554.56.603.28 1.036.84t.434 1.47q0 .784-.406 1.456-.405.672-1.19 1.078-.784.392-1.862.392m12.367-4.144q0 .42-.056.756h-5.67q.07.84.588 1.316.519.476 1.274.476 1.092 0 1.554-.938h2.114a3.57 3.57 0 0 1-1.288 1.848q-.952.714-2.338.714-1.119 0-2.016-.49a3.6 3.6 0 0 1-1.386-1.414q-.49-.91-.49-2.1 0-1.204.49-2.114a3.4 3.4 0 0 1 1.372-1.4q.882-.49 2.03-.49 1.107 0 1.974.476.882.476 1.358 1.358.49.868.49 2.002m-2.03-.56q-.013-.756-.546-1.204-.531-.462-1.302-.462-.728 0-1.232.448-.49.434-.602 1.218zm6.43 4.732q-.953 0-1.709-.336a3.13 3.13 0 0 1-1.204-.938 2.4 2.4 0 0 1-.476-1.302h1.974q.056.448.434.742.392.294.966.294.56 0 .868-.224.322-.224.322-.574 0-.378-.392-.56-.378-.195-1.218-.42a11 11 0 0 1-1.428-.434 2.54 2.54 0 0 1-.952-.686q-.392-.462-.392-1.246 0-.644.364-1.176.378-.533 1.064-.84.7-.308 1.638-.308 1.386 0 2.212.7.826.686.91 1.862h-1.876a.98.98 0 0 0-.392-.728q-.336-.28-.91-.28-.532 0-.826.196a.63.63 0 0 0-.28.546q0 .392.392.602.391.196 1.218.406.84.21 1.386.434.546.225.938.7.405.462.42 1.232 0 .672-.378 1.204-.364.532-1.064.84-.686.294-1.61.294m7.628 0q-.952 0-1.708-.336a3.13 3.13 0 0 1-1.204-.938 2.4 2.4 0 0 1-.476-1.302h1.974q.056.448.434.742.391.294.966.294.56 0 .868-.224.322-.224.322-.574 0-.378-.392-.56-.378-.195-1.218-.42a11 11 0 0 1-1.428-.434 2.54 2.54 0 0 1-.952-.686q-.392-.462-.392-1.246 0-.644.364-1.176.378-.533 1.064-.84.7-.308 1.638-.308 1.386 0 2.212.7.826.686.91 1.862h-1.876a.98.98 0 0 0-.392-.728q-.336-.28-.91-.28-.532 0-.826.196a.63.63 0 0 0-.28.546q0 .392.392.602.391.196 1.218.406.84.21 1.386.434.546.225.938.7.407.462.42 1.232 0 .672-.378 1.204-.364.532-1.064.84-.686.294-1.61.294m5.655-8.806q-.518 0-.868-.322a1.12 1.12 0 0 1-.336-.826q0-.49.336-.812.35-.336.868-.336t.854.336q.35.322.35.812t-.35.826q-.336.322-.854.322m.966.924v7.756h-1.96v-7.756zm5.38 7.882q-1.119 0-2.016-.49a3.7 3.7 0 0 1-1.414-1.414q-.504-.91-.504-2.1t.518-2.1a3.66 3.66 0 0 1 1.442-1.4 4.1 4.1 0 0 1 2.03-.504q1.12 0 2.03.504a3.55 3.55 0 0 1 1.428 1.4q.532.91.532 2.1t-.546 2.1a3.7 3.7 0 0 1-1.456 1.414q-.91.49-2.044.49m0-1.708q.532 0 .994-.252.477-.266.756-.784.28-.517.28-1.26 0-1.106-.588-1.694a1.88 1.88 0 0 0-1.414-.602q-.84 0-1.414.602-.56.588-.56 1.694t.546 1.708q.56.588 1.4.588m9.782-6.286q1.386 0 2.24.882.854.868.854 2.436v4.55h-1.96v-4.284q0-.924-.462-1.414-.462-.504-1.26-.504-.812 0-1.288.504-.462.49-.462 1.414v4.284h-1.96v-7.756h1.96v.966q.392-.504.994-.784a3.1 3.1 0 0 1 1.344-.294m11.738 7.994q-1.12 0-2.016-.49a3.7 3.7 0 0 1-1.414-1.414q-.504-.91-.504-2.1t.518-2.1a3.65 3.65 0 0 1 1.442-1.4 4.1 4.1 0 0 1 2.03-.504q1.12 0 2.03.504a3.55 3.55 0 0 1 1.428 1.4q.532.91.532 2.1t-.546 2.1a3.7 3.7 0 0 1-1.456 1.414q-.91.49-2.044.49m0-1.708q.532 0 .994-.252a1.9 1.9 0 0 0 .756-.784q.28-.517.28-1.26 0-1.106-.588-1.694a1.88 1.88 0 0 0-1.414-.602q-.84 0-1.414.602-.56.588-.56 1.694t.546 1.708q.56.588 1.4.588m8.718-.224 1.96-5.95h2.086l-2.87 7.756h-2.38l-2.856-7.756h2.1zm12.356-2.24q0 .42-.056.756h-5.67q.07.84.588 1.316.519.476 1.274.476 1.092 0 1.554-.938h2.114a3.57 3.57 0 0 1-1.288 1.848q-.951.714-2.338.714-1.119 0-2.016-.49a3.6 3.6 0 0 1-1.386-1.414q-.49-.91-.49-2.1 0-1.204.49-2.114a3.4 3.4 0 0 1 1.372-1.4q.882-.49 2.03-.49 1.107 0 1.974.476.882.476 1.358 1.358.49.868.49 2.002m-2.03-.56q-.013-.756-.546-1.204-.531-.462-1.302-.462-.728 0-1.232.448-.49.434-.602 1.218zm5.421-1.946q.378-.616.98-.966.616-.35 1.4-.35v2.058h-.518q-.924 0-1.4.434-.462.434-.462 1.512v3.864h-1.96v-7.756h1.96zm6.934 4.746 1.96-5.95h2.086l-2.87 7.756h-2.38l-2.856-7.756h2.1zm6.141-6.874q-.518 0-.868-.322a1.12 1.12 0 0 1-.336-.826q0-.49.336-.812.35-.336.868-.336t.854.336q.35.322.35.812t-.35.826q-.336.322-.854.322m.966.924v7.756h-1.96v-7.756zm9.147 3.71q0 .42-.056.756h-5.67q.069.84.588 1.316t1.274.476q1.092 0 1.554-.938h2.114a3.57 3.57 0 0 1-1.288 1.848q-.952.714-2.338.714-1.12 0-2.016-.49a3.6 3.6 0 0 1-1.386-1.414q-.49-.91-.49-2.1 0-1.204.49-2.114a3.4 3.4 0 0 1 1.372-1.4q.882-.49 2.03-.49 1.106 0 1.974.476.882.476 1.358 1.358.49.868.49 2.002m-2.03-.56q-.015-.756-.546-1.204-.533-.462-1.302-.462-.728 0-1.232.448-.49.434-.602 1.218zm14.212-3.15-2.268 7.756h-2.114l-1.414-5.418-1.414 5.418h-2.128l-2.282-7.756h1.988l1.372 5.908 1.484-5.908h2.072l1.456 5.894 1.372-5.894z" opacity=".6"/><rect width="65.5" height="21.5" x="302.25" y="24.25" stroke="#000" stroke-opacity=".2" stroke-width=".5" rx="2.75"/><path fill="#000" fill-opacity=".7" d="M319.24 32.05v.93h-1.85V39h-1.14v-6.02h-1.86v-.93zm3.545 7.04q-.78 0-1.41-.35-.63-.36-.99-1-.36-.65-.36-1.5 0-.84.37-1.49a2.55 2.55 0 0 1 1.01-1q.64-.35 1.43-.35t1.43.35 1.01 1 .37 1.49-.38 1.49-1.04 1.01q-.651.35-1.44.35m0-.99q.44 0 .82-.21.39-.21.63-.63t.24-1.02-.23-1.01a1.55 1.55 0 0 0-.61-.63 1.7 1.7 0 0 0-.82-.21q-.44 0-.82.21-.37.21-.59.63-.22.41-.22 1.01 0 .89.45 1.38.46.48 1.15.48m3.606-1.88q0-.83.34-1.47a2.546 2.546 0 0 1 3.33-1.11q.531.23.84.62V31.6h1.15V39h-1.15v-.83a2.1 2.1 0 0 1-.78.66q-.49.26-1.13.26-.72 0-1.32-.36a2.7 2.7 0 0 1-.94-1.02 3.2 3.2 0 0 1-.34-1.49m4.51.02q0-.57-.24-.99a1.61 1.61 0 0 0-1.43-.86q-.44 0-.82.22-.38.21-.62.63-.23.41-.23.98t.23 1q.24.43.62.66a1.65 1.65 0 0 0 1.64 0q.38-.22.61-.64.24-.43.24-1m2.268-.02q0-.83.34-1.47a2.53 2.53 0 0 1 2.26-1.35q.65 0 1.13.26.489.25.78.63v-.8h1.15V39h-1.15v-.82q-.29.39-.79.65-.501.26-1.14.26-.71 0-1.3-.36a2.67 2.67 0 0 1-.94-1.02 3.2 3.2 0 0 1-.34-1.49m4.51.02q0-.57-.24-.99a1.6 1.6 0 0 0-.61-.64 1.6 1.6 0 0 0-.82-.22q-.44 0-.82.22-.38.21-.62.63-.23.41-.23.98t.23 1q.24.43.62.66a1.64 1.64 0 0 0 1.64 0q.38-.22.61-.64.24-.43.24-1m7.607-2.75-3.38 8.1h-1.18l1.12-2.68-2.17-5.42h1.27l1.55 4.2 1.61-4.2z"/><g clip-path="url(#b)"><path fill="#D26D60" d="m354.999 35.488 2.063-2.062.589.589-2.652 2.652-2.651-2.652.589-.59z"/></g><path fill="#000" fill-opacity=".7" d="M70.122 195.503v-.83h1.88v7.23h-.92v-6.4zm3.443 2.71q0-1.72.56-2.68.56-.97 1.96-.97 1.39 0 1.95.97.56.96.56 2.68 0 1.75-.56 2.72t-1.95.97q-1.4 0-1.96-.97t-.56-2.72m4.13 0q0-.87-.12-1.47-.11-.61-.47-.98-.35-.37-1.02-.37-.68 0-1.04.37-.35.37-.47.98-.11.6-.11 1.47 0 .9.11 1.51.12.61.47.98.36.37 1.04.37.67 0 1.02-.37.36-.37.47-.98.12-.61.12-1.51m2.59 3.75a.6.6 0 0 1-.44-.18.6.6 0 0 1-.18-.44q0-.26.18-.44t.44-.18q.249 0 .42.18.18.18.18.44t-.18.44a.56.56 0 0 1-.42.18m0-4.28a.6.6 0 0 1-.44-.18.6.6 0 0 1-.18-.44q0-.26.18-.44t.44-.18q.249 0 .42.18.18.18.18.44t-.18.44a.56.56 0 0 1-.42.18m1.689.53q0-1.72.56-2.68.56-.97 1.96-.97 1.389 0 1.95.97.56.96.56 2.68 0 1.75-.56 2.72-.561.97-1.95.97-1.4 0-1.96-.97t-.56-2.72m4.13 0q0-.87-.12-1.47-.11-.61-.47-.98-.351-.37-1.02-.37-.68 0-1.04.37-.35.37-.47.98-.11.6-.11 1.47 0 .9.11 1.51.12.61.47.98.36.37 1.04.37.669 0 1.02-.37.36-.37.47-.98.12-.61.12-1.51m2.149 0q0-1.72.56-2.68.56-.97 1.96-.97 1.39 0 1.95.97.56.96.56 2.68 0 1.75-.56 2.72t-1.95.97q-1.4 0-1.96-.97t-.56-2.72m4.13 0q0-.87-.12-1.47-.11-.61-.47-.98-.351-.37-1.02-.37-.68 0-1.04.37-.35.37-.47.98-.11.6-.11 1.47 0 .9.11 1.51.12.61.47.98.36.37 1.04.37.67 0 1.02-.37.36-.37.47-.98.12-.61.12-1.51M116.089 195.503v-.83h1.88v7.23h-.92v-6.4zm3.443 2.71q0-1.72.56-2.68.56-.97 1.96-.97 1.39 0 1.95.97.56.96.56 2.68 0 1.75-.56 2.72t-1.95.97q-1.4 0-1.96-.97t-.56-2.72m4.13 0q0-.87-.12-1.47-.11-.61-.47-.98-.35-.37-1.02-.37-.68 0-1.04.37-.35.37-.47.98-.11.6-.11 1.47 0 .9.11 1.51.12.61.47.98.36.37 1.04.37.67 0 1.02-.37.36-.37.47-.98.12-.61.12-1.51m2.589 3.75a.6.6 0 0 1-.44-.18.6.6 0 0 1-.18-.44q0-.26.18-.44t.44-.18q.25 0 .42.18.18.18.18.44t-.18.44a.55.55 0 0 1-.42.18m0-4.28a.6.6 0 0 1-.44-.18.6.6 0 0 1-.18-.44q0-.26.18-.44t.44-.18q.25 0 .42.18.18.18.18.44t-.18.44a.55.55 0 0 1-.42.18m1.689.53q0-1.72.56-2.68.56-.97 1.96-.97 1.39 0 1.95.97.56.96.56 2.68 0 1.75-.56 2.72t-1.95.97q-1.4 0-1.96-.97t-.56-2.72m4.13 0q0-.87-.12-1.47-.11-.61-.47-.98-.35-.37-1.02-.37-.68 0-1.04.37-.35.37-.47.98-.11.6-.11 1.47 0 .9.11 1.51.12.61.47.98.36.37 1.04.37.67 0 1.02-.37.36-.37.47-.98.12-.61.12-1.51m2.15 0q0-1.72.56-2.68.56-.97 1.96-.97 1.389 0 1.95.97.56.96.56 2.68 0 1.75-.56 2.72-.561.97-1.95.97-1.4 0-1.96-.97t-.56-2.72m4.13 0q0-.87-.12-1.47-.11-.61-.47-.98-.351-.37-1.02-.37-.68 0-1.04.37-.35.37-.47.98-.11.6-.11 1.47 0 .9.11 1.51.12.61.47.98.36.37 1.04.37.669 0 1.02-.37.36-.37.47-.98.12-.61.12-1.51M162.058 195.503v-.83h1.88v7.23h-.92v-6.4zm3.443 2.71q0-1.72.56-2.68.56-.97 1.96-.97 1.39 0 1.95.97.56.96.56 2.68 0 1.75-.56 2.72t-1.95.97q-1.4 0-1.96-.97t-.56-2.72m4.13 0q0-.87-.12-1.47-.11-.61-.47-.98-.35-.37-1.02-.37-.68 0-1.04.37-.35.37-.47.98-.11.6-.11 1.47 0 .9.11 1.51.12.61.47.98.36.37 1.04.37.67 0 1.02-.37.36-.37.47-.98.12-.61.12-1.51m2.589 3.75a.6.6 0 0 1-.44-.18.6.6 0 0 1-.18-.44q0-.26.18-.44t.44-.18q.25 0 .42.18.18.18.18.44t-.18.44a.55.55 0 0 1-.42.18m0-4.28a.6.6 0 0 1-.44-.18.6.6 0 0 1-.18-.44q0-.26.18-.44t.44-.18q.25 0 .42.18.18.18.18.44t-.18.44a.55.55 0 0 1-.42.18m1.689.53q0-1.72.56-2.68.56-.97 1.96-.97 1.39 0 1.95.97.56.96.56 2.68 0 1.75-.56 2.72t-1.95.97q-1.4 0-1.96-.97t-.56-2.72m4.13 0q0-.87-.12-1.47-.11-.61-.47-.98-.35-.37-1.02-.37-.68 0-1.04.37-.35.37-.47.98-.11.6-.11 1.47 0 .9.11 1.51.12.61.47.98.36.37 1.04.37.67 0 1.02-.37.36-.37.47-.98.12-.61.12-1.51m2.149 0q0-1.72.56-2.68.56-.97 1.96-.97 1.39 0 1.95.97.56.96.56 2.68 0 1.75-.56 2.72t-1.95.97q-1.4 0-1.96-.97t-.56-2.72m4.13 0q0-.87-.12-1.47-.11-.61-.47-.98-.35-.37-1.02-.37-.68 0-1.04.37-.35.37-.47.98-.11.6-.11 1.47 0 .9.11 1.51.12.61.47.98.36.37 1.04.37.67 0 1.02-.37.36-.37.47-.98.12-.61.12-1.51M208.025 195.503v-.83h1.88v7.23h-.92v-6.4zm3.443 2.71q0-1.72.56-2.68.56-.97 1.96-.97 1.389 0 1.95.97.56.96.56 2.68 0 1.75-.56 2.72-.561.97-1.95.97-1.4 0-1.96-.97t-.56-2.72m4.13 0q0-.87-.12-1.47-.11-.61-.47-.98-.351-.37-1.02-.37-.68 0-1.04.37-.35.37-.47.98-.11.6-.11 1.47 0 .9.11 1.51.12.61.47.98.36.37 1.04.37.669 0 1.02-.37.36-.37.47-.98.12-.61.12-1.51m2.589 3.75a.6.6 0 0 1-.44-.18.6.6 0 0 1-.18-.44q0-.26.18-.44t.44-.18q.25 0 .42.18.18.18.18.44t-.18.44a.55.55 0 0 1-.42.18m0-4.28a.6.6 0 0 1-.44-.18.6.6 0 0 1-.18-.44q0-.26.18-.44t.44-.18q.25 0 .42.18.18.18.18.44t-.18.44a.55.55 0 0 1-.42.18m1.689.53q0-1.72.56-2.68.56-.97 1.96-.97 1.39 0 1.95.97.56.96.56 2.68 0 1.75-.56 2.72t-1.95.97q-1.4 0-1.96-.97t-.56-2.72m4.13 0q0-.87-.12-1.47-.11-.61-.47-.98-.35-.37-1.02-.37-.68 0-1.04.37-.35.37-.47.98-.11.6-.11 1.47 0 .9.11 1.51.12.61.47.98.36.37 1.04.37.67 0 1.02-.37.36-.37.47-.98.12-.61.12-1.51m2.149 0q0-1.72.56-2.68.56-.97 1.96-.97 1.39 0 1.95.97.56.96.56 2.68 0 1.75-.56 2.72t-1.95.97q-1.4 0-1.96-.97t-.56-2.72m4.13 0q0-.87-.12-1.47-.11-.61-.47-.98-.35-.37-1.02-.37-.68 0-1.04.37-.35.37-.47.98-.11.6-.11 1.47 0 .9.11 1.51.12.61.47.98.36.37 1.04.37.67 0 1.02-.37.36-.37.47-.98.12-.61.12-1.51M253.993 195.503v-.83h1.88v7.23h-.92v-6.4zm3.443 2.71q0-1.72.56-2.68.56-.97 1.96-.97 1.39 0 1.95.97.56.96.56 2.68 0 1.75-.56 2.72t-1.95.97q-1.4 0-1.96-.97t-.56-2.72m4.13 0q0-.87-.12-1.47-.11-.61-.47-.98-.35-.37-1.02-.37-.68 0-1.04.37-.35.37-.47.98-.11.6-.11 1.47 0 .9.11 1.51.12.61.47.98.36.37 1.04.37.67 0 1.02-.37.36-.37.47-.98.12-.61.12-1.51m2.59 3.75a.6.6 0 0 1-.44-.18.6.6 0 0 1-.18-.44q0-.26.18-.44t.44-.18q.249 0 .42.18.18.18.18.44t-.18.44a.56.56 0 0 1-.42.18m0-4.28a.6.6 0 0 1-.44-.18.6.6 0 0 1-.18-.44q0-.26.18-.44t.44-.18q.249 0 .42.18.18.18.18.44t-.18.44a.56.56 0 0 1-.42.18m1.689.53q0-1.72.56-2.68.56-.97 1.96-.97 1.389 0 1.95.97.56.96.56 2.68 0 1.75-.56 2.72-.561.97-1.95.97-1.4 0-1.96-.97t-.56-2.72m4.13 0q0-.87-.12-1.47-.11-.61-.47-.98-.351-.37-1.02-.37-.68 0-1.04.37-.35.37-.47.98-.11.6-.11 1.47 0 .9.11 1.51.12.61.47.98.36.37 1.04.37.669 0 1.02-.37.36-.37.47-.98.12-.61.12-1.51m2.149 0q0-1.72.56-2.68.56-.97 1.96-.97 1.39 0 1.95.97.56.96.56 2.68 0 1.75-.56 2.72t-1.95.97q-1.4 0-1.96-.97t-.56-2.72m4.13 0q0-.87-.12-1.47-.11-.61-.47-.98-.35-.37-1.02-.37-.68 0-1.04.37-.35.37-.47.98-.11.6-.11 1.47 0 .9.11 1.51.12.61.47.98.36.37 1.04.37.67 0 1.02-.37.36-.37.47-.98.12-.61.12-1.51M299.96 195.503v-.83h1.88v7.23h-.92v-6.4zm3.443 2.71q0-1.72.56-2.68.56-.97 1.96-.97 1.39 0 1.95.97.56.96.56 2.68 0 1.75-.56 2.72t-1.95.97q-1.4 0-1.96-.97t-.56-2.72m4.13 0q0-.87-.12-1.47-.11-.61-.47-.98-.35-.37-1.02-.37-.68 0-1.04.37-.35.37-.47.98-.11.6-.11 1.47 0 .9.11 1.51.12.61.47.98.36.37 1.04.37.67 0 1.02-.37.36-.37.47-.98.12-.61.12-1.51m2.59 3.75a.6.6 0 0 1-.44-.18.6.6 0 0 1-.18-.44q0-.26.18-.44t.44-.18q.249 0 .42.18.18.18.18.44t-.18.44a.56.56 0 0 1-.42.18m0-4.28a.6.6 0 0 1-.44-.18.6.6 0 0 1-.18-.44q0-.26.18-.44t.44-.18q.249 0 .42.18.18.18.18.44t-.18.44a.56.56 0 0 1-.42.18m1.688.53q0-1.72.56-2.68.56-.97 1.96-.97 1.39 0 1.95.97.56.96.56 2.68 0 1.75-.56 2.72t-1.95.97q-1.4 0-1.96-.97t-.56-2.72m4.13 0q0-.87-.12-1.47-.11-.61-.47-.98-.35-.37-1.02-.37-.68 0-1.04.37-.35.37-.47.98-.11.6-.11 1.47 0 .9.11 1.51.12.61.47.98.36.37 1.04.37.67 0 1.02-.37.36-.37.47-.98.12-.61.12-1.51m2.15 0q0-1.72.56-2.68.56-.97 1.96-.97 1.389 0 1.95.97.56.96.56 2.68 0 1.75-.56 2.72-.561.97-1.95.97-1.4 0-1.96-.97t-.56-2.72m4.13 0q0-.87-.12-1.47-.11-.61-.47-.98-.351-.37-1.02-.37-.68 0-1.04.37-.35.37-.47.98-.11.6-.11 1.47 0 .9.11 1.51.12.61.47.98.36.37 1.04.37.669 0 1.02-.37.36-.37.47-.98.12-.61.12-1.51M345.929 195.503v-.83h1.88v7.23h-.92v-6.4zm3.443 2.71q0-1.72.56-2.68.56-.97 1.96-.97 1.39 0 1.95.97.56.96.56 2.68 0 1.75-.56 2.72t-1.95.97q-1.4 0-1.96-.97t-.56-2.72m4.13 0q0-.87-.12-1.47-.11-.61-.47-.98-.35-.37-1.02-.37-.68 0-1.04.37-.35.37-.47.98-.11.6-.11 1.47 0 .9.11 1.51.12.61.47.98.36.37 1.04.37.67 0 1.02-.37.36-.37.47-.98.12-.61.12-1.51m2.589 3.75a.6.6 0 0 1-.44-.18.6.6 0 0 1-.18-.44q0-.26.18-.44t.44-.18q.25 0 .42.18.18.18.18.44t-.18.44a.55.55 0 0 1-.42.18m0-4.28a.6.6 0 0 1-.44-.18.6.6 0 0 1-.18-.44q0-.26.18-.44t.44-.18q.25 0 .42.18.18.18.18.44t-.18.44a.55.55 0 0 1-.42.18m1.689.53q0-1.72.56-2.68.56-.97 1.96-.97 1.39 0 1.95.97.56.96.56 2.68 0 1.75-.56 2.72t-1.95.97q-1.4 0-1.96-.97t-.56-2.72m4.13 0q0-.87-.12-1.47-.11-.61-.47-.98-.35-.37-1.02-.37-.68 0-1.04.37-.35.37-.47.98-.11.6-.11 1.47 0 .9.11 1.51.12.61.47.98.36.37 1.04.37.67 0 1.02-.37.36-.37.47-.98.12-.61.12-1.51m2.149 0q0-1.72.56-2.68.56-.97 1.96-.97 1.39 0 1.95.97.56.96.56 2.68 0 1.75-.56 2.72t-1.95.97q-1.4 0-1.96-.97t-.56-2.72m4.13 0q0-.87-.12-1.47-.11-.61-.47-.98-.35-.37-1.02-.37-.68 0-1.04.37-.35.37-.47.98-.11.6-.11 1.47 0 .9.11 1.51.12.61.47.98.36.37 1.04.37.67 0 1.02-.37.36-.37.47-.98.12-.61.12-1.51" opacity=".8"/><defs><clipPath id="b"><path fill="#fff" d="M350 30h10v10h-10z"/></clipPath><filter id="a" width="437.355" height="336" x="0" y="0" color-interpolation-filters="sRGB" filterUnits="userSpaceOnUse"><feFlood flood-opacity="0" result="BackgroundImageFix"/><feColorMatrix in="SourceAlpha" result="hardAlpha" values="0 0 0 0 0 0 0 0 0 0 0 0 0 0 0 0 0 0 127 0"/><feMorphology in="SourceAlpha" radius="20" result="effect1_dropShadow_1458_6"/><feOffset dy="64"/><feGaussianBlur stdDeviation="32"/><feComposite in2="hardAlpha" operator="out"/><feColorMatrix values="0 0 0 0 0 0 0 0 0 0 0 0 0 0 0 0 0 0 0.1 0"/><feBlend in2="BackgroundImageFix" result="effect1_dropShadow_1458_6"/><feBlend in="SourceGraphic" in2="effect1_dropShadow_1458_6" result="shape"/></filter></defs></svg>