<svg xmlns="http://www.w3.org/2000/svg" width="179" height="40" fill="none"><path fill="#18063C" d="M63.16 32.252q-2.628 0-4.752-.9-2.088-.9-3.312-2.592t-1.26-3.996h5.4q.108 1.548 1.08 2.448 1.008.9 2.736.9 1.764 0 2.772-.828 1.008-.864 1.008-2.232 0-1.116-.684-1.836T64.42 22.1q-1.008-.432-2.808-.936-2.448-.72-3.996-1.404-1.512-.72-2.628-2.124-1.08-1.44-1.08-3.816 0-2.232 1.116-3.888t3.132-2.52q2.016-.9 4.608-.9 3.888 0 6.3 1.908 2.448 1.872 2.7 5.256H66.22q-.072-1.296-1.116-2.124-1.008-.864-2.7-.864-1.476 0-2.376.756-.864.756-.864 2.196 0 1.008.648 1.692a5.8 5.8 0 0 0 1.656 1.08q1.008.396 2.808.936 2.448.72 3.996 1.44t2.664 2.16 1.116 3.78a7.1 7.1 0 0 1-1.044 3.744q-1.044 1.728-3.06 2.772-2.016 1.008-4.788 1.008M74.766 21.956q0-3.024 1.188-5.364 1.224-2.34 3.276-3.6 2.087-1.26 4.644-1.26 2.232 0 3.888.9 1.691.9 2.7 2.268v-2.844h5.075V32h-5.076v-2.916q-.97 1.404-2.7 2.34-1.69.9-3.923.9-2.52 0-4.608-1.296-2.052-1.296-3.276-3.636-1.188-2.376-1.188-5.436m15.695.072q0-1.836-.72-3.132-.72-1.332-1.944-2.016a5.1 5.1 0 0 0-2.627-.72q-1.404 0-2.593.684-1.187.684-1.944 2.016-.72 1.296-.72 3.096t.72 3.168q.757 1.332 1.945 2.052 1.224.72 2.591.72 1.405 0 2.629-.684a5.24 5.24 0 0 0 1.944-2.016q.72-1.332.72-3.168M98.804 21.956q0-3.024 1.188-5.364 1.224-2.34 3.276-3.6 2.088-1.26 4.644-1.26 2.232 0 3.888.9 1.692.9 2.7 2.268v-2.844h5.076V32H114.5v-2.916q-.972 1.404-2.7 2.34-1.692.9-3.924.9-2.52 0-4.608-1.296-2.052-1.296-3.276-3.636-1.188-2.376-1.188-5.436m15.696.072q0-1.836-.72-3.132-.72-1.332-1.944-2.016a5.1 5.1 0 0 0-2.628-.72q-1.404 0-2.592.684t-1.944 2.016q-.72 1.296-.72 3.096t.72 3.168q.756 1.332 1.944 2.052 1.224.72 2.592.72 1.404 0 2.628-.684a5.24 5.24 0 0 0 1.944-2.016q.72-1.332.72-3.168M132.814 32.252q-2.628 0-4.752-.9-2.088-.9-3.312-2.592t-1.26-3.996h5.4q.108 1.548 1.08 2.448 1.008.9 2.736.9 1.764 0 2.772-.828 1.008-.864 1.008-2.232 0-1.116-.684-1.836t-1.728-1.116q-1.008-.432-2.808-.936-2.448-.72-3.996-1.404-1.512-.72-2.628-2.124-1.08-1.44-1.08-3.816 0-2.232 1.116-3.888t3.132-2.52q2.016-.9 4.608-.9 3.888 0 6.3 1.908 2.448 1.872 2.7 5.256h-5.544q-.072-1.296-1.116-2.124-1.008-.864-2.7-.864-1.476 0-2.376.756-.864.756-.864 2.196 0 1.008.648 1.692a5.8 5.8 0 0 0 1.656 1.08q1.008.396 2.808.936 2.448.72 3.996 1.44t2.664 2.16 1.116 3.78a7.1 7.1 0 0 1-1.044 3.744q-1.044 1.728-3.06 2.772-2.016 1.008-4.788 1.008M151.584 16.196v9.648q0 1.008.468 1.476.504.432 1.656.432h2.34V32h-3.168q-6.372 0-6.372-6.192v-9.612h-2.376v-4.14h2.376V7.124h5.076v4.932h4.464v4.14zM168.169 32.324q-2.88 0-5.184-1.26-2.304-1.296-3.636-3.636-1.296-2.34-1.296-5.4t1.332-5.4q1.368-2.34 3.708-3.6 2.34-1.296 5.22-1.296t5.22 1.296a9.14 9.14 0 0 1 3.672 3.6q1.368 2.34 1.368 5.4t-1.404 5.4a9.57 9.57 0 0 1-3.744 3.636q-2.34 1.26-5.256 1.26m0-4.392q1.368 0 2.556-.648 1.224-.684 1.944-2.016t.72-3.24q0-2.844-1.512-4.356-1.476-1.548-3.636-1.548t-3.636 1.548q-1.44 1.512-1.44 4.356t1.404 4.392q1.44 1.512 3.6 1.512"/><path fill="#FA865F" d="M22.393 37.008H11.305a8.4 8.4 0 0 1-8.399-8.399V11.391a8.4 8.4 0 0 1 8.399-8.398h13.511a18 18 0 0 0-4.364.972Q17.467 5.04 15.6 7.199q-1.868 2.156-1.869 5.175c0 2.155.528 3.906 1.583 5.244q1.578 2.012 3.81 3.017c1.482.672 3.399 1.34 5.747 2.013q2.874.864 4.492 1.51 1.614.647 2.696 1.796 1.076 1.15 1.076 2.945 0 2.659-1.904 4.13-1.903 1.473-5.281 1.472-3.738 0-5.713-1.258-1.976-1.257-1.976-3.414 0-1.578.828-2.444.827-.863.827-.934 0-.359-.9-1.007a3.42 3.42 0 0 0-2.047-.648q-2.012 0-3.269 1.293-1.258 1.294-1.258 3.378-.001 3.668 3.592 5.675c1.738.983 3.861 1.597 6.358 1.865"/><path fill="#FA865F" d="M28.84 0H11.157C5.006 0 0 5.006 0 11.157V28.84c0 6.154 5.006 11.157 11.157 11.157H28.84C34.994 39.997 40 34.99 40 28.84V11.157C40 5.006 34.994 0 28.84 0m10.205 28.84c0 5.633-4.568 10.202-10.202 10.202H11.157C5.523 39.042.955 34.473.955 28.84V11.157C.955 5.523 5.523.955 11.157.955H28.84c2.403 0 4.61.838 6.354 2.234 1.986 1.917 3.296 5.13 1.813 8.347a4.7 4.7 0 0 1-.879 1.486q-1.186 1.365-3.127 1.365a3.4 3.4 0 0 1-2.048-.648q-.9-.645-.9-1.007.002-.07.576-.575.574-.503 1.045-1.187c.31-.455.469-.992.469-1.616q-.146-1.94-1.941-3.017c-1.2-.717-2.614-1.08-4.241-1.08q-2.73 0-4.778 1.26-2.049 1.256-2.048 3.485-.001 2.01.862 3.196t2.585 1.903q1.723.72 5.461 1.94 3.807 1.221 5.965 2.266c1.22.59 2.21 1.362 3 2.296l.03.038c1.338 1.61 2.007 3.668 2.007 5.761z"/></svg>