<svg xmlns="http://www.w3.org/2000/svg" width="176" height="35" fill="none"><path fill="#FF733B" d="M.728 19.306c1.461-3.851 6.942-6.82 9.5-7.822 11.692-4.814 30.51-7.22 38.365-6.017s-.73 3.61-8.221 6.017c-7.49 2.406-2.01 3.61 4.75 2.406s20.827-2.406 32.885-3.008-.183-1.805-12.058-1.805-11.692-2.407-7.49-3.61C62.66 4.264 72.16-.55 83.305.052c11.144.601 37.452 1.805 48.779 6.017 11.327 4.211 34.711 15.643 40.375 19.253 5.663 3.61 4.932 13.839-5.116 7.822s-30.875-16.847-76.548-18.652-80.384 8.424-84.038 12.635-6.212 4.212-4.75.602 1.827-4.212.365-3.008-3.471-.602-1.644-5.415"/></svg>