<svg xmlns="http://www.w3.org/2000/svg" width="48" height="42" fill="none"><path fill="#F6F9F9" d="M45.088 7.319 19.16 5.85 0 7.319v28.917c0 .504.409.912.912.912h43.263a.91.91 0 0 0 .912-.912z"/><path fill="#E7ECF1" d="M.912 37.148h43.263a.91.91 0 0 0 .913-.912V7.319l-3.864-.197v15.123a2.91 2.91 0 0 1-3.316 2.882 7.3 7.3 0 0 0-1.132-.072c-3.907.055-7.1 3.251-7.15 7.158l-.001.082a2.916 2.916 0 0 1-2.91 2.922H0v1.019c0 .504.409.912.912.912"/><path fill="#DA4A54" d="M40.778 25.255v2.592c0 .1-.081.181-.181.181h-3.681a.18.18 0 0 1-.182-.18v-2.593c0-.1.082-.181.182-.181h3.68c.1 0 .182.08.182.181m0-4.316c0-.1-.081-.181-.181-.181h-3.681c-.1 0-.182.081-.182.181v2.592c0 .1.082.182.182.182h3.68c.1 0 .182-.081.182-.182zm0-4.315c0-.1-.081-.182-.181-.182h-3.681c-.1 0-.182.082-.182.182v2.592c0 .1.082.181.182.181h3.68c.1 0 .182-.081.182-.181zm0-4.316c0-.1-.081-.181-.181-.181h-3.681c-.1 0-.182.081-.182.181V14.9c0 .1.082.181.182.181h3.68c.1 0 .182-.08.182-.18z"/><path fill="#D82E3D" d="M36.916 28.028h3.68c.1 0 .182-.08.182-.181v-2.592c0-.1-.081-.181-.181-.181h-1.592a2.9 2.9 0 0 1-1.098.052 7 7 0 0 0-.494-.053h-.497c-.1 0-.182.082-.182.182v2.592c0 .1.082.181.182.181"/><path fill="#DAE4EA" d="M29.97 19.216c0 .1-.082.181-.182.181h-3.68a.18.18 0 0 1-.182-.181v-2.592c0-.1.081-.182.181-.182h3.681c.1 0 .181.082.181.182zm0-6.908c0-.1-.082-.181-.182-.181h-3.68c-.1 0-.182.081-.182.181V14.9c0 .1.081.182.181.182h3.681c.1 0 .181-.082.181-.182zm-.182 12.766h-3.68c-.1 0-.182.08-.182.181v2.592c0 .1.081.181.182.181h3.68c.1 0 .182-.08.182-.18v-2.593c0-.1-.082-.181-.182-.181M9.877 15.082h3.698c.1 0 .182-.082.182-.182v-2.592c0-.1-.082-.181-.182-.181H9.877c-.1 0-.182.081-.182.181V14.9c0 .1.082.182.182.182m-.182 4.134c0 .1.082.181.182.181h3.698c.1 0 .182-.081.182-.181v-2.592c0-.1-.082-.182-.182-.182H9.877c-.1 0-.182.082-.182.182zm20.275 1.723c0-.1-.082-.18-.182-.18h-3.68c-.1 0-.182.08-.182.18v2.593c0 .1.081.18.181.18h3.681c.1 0 .181-.08.181-.18zM9.695 23.533c0 .1.082.18.182.18h3.698c.1 0 .182-.08.182-.18v-2.593c0-.1-.082-.18-.182-.18H9.877c-.1 0-.182.08-.182.18zm25.497 1.542h-3.68c-.1 0-.182.08-.182.181v2.592c0 .1.082.181.182.181h3.68c.1 0 .182-.08.182-.18v-2.593c0-.1-.081-.181-.182-.181m.182-4.135c0-.1-.081-.18-.182-.18h-3.68c-.1 0-.182.08-.182.18v2.593c0 .1.082.18.182.18h3.68c.1 0 .182-.08.182-.18zm0-4.315c0-.1-.081-.182-.182-.182h-3.68c-.1 0-.182.082-.182.182v2.592c0 .1.082.181.182.181h3.68c.1 0 .182-.081.182-.181zm0-4.316c0-.1-.081-.181-.182-.181h-3.68c-.1 0-.182.081-.182.181V14.9c0 .1.082.182.182.182h3.68c.1 0 .182-.082.182-.182zM9.695 32.158c0 .1.082.182.182.182h3.698c.1 0 .182-.081.182-.182v-2.587c0-.1-.082-.182-.182-.182H9.877c-.1 0-.182.082-.182.182zm10.827-4.31c0 .1.081.18.181.18h3.68c.101 0 .182-.08.182-.18v-2.593c0-.1-.081-.181-.181-.181h-3.68c-.101 0-.182.081-.182.181zm.181-8.45h3.68c.101 0 .182-.082.182-.182v-2.592c0-.1-.081-.182-.181-.182h-3.68c-.101 0-.182.082-.182.182v2.592c0 .1.081.181.181.181m-.181 4.134c0 .1.081.18.181.18h3.68c.101 0 .182-.08.182-.18v-2.593c0-.1-.081-.18-.181-.18h-3.68c-.101 0-.182.08-.182.18zm0 8.626c0 .1.081.182.181.182h3.68c.101 0 .182-.081.182-.182v-2.587c0-.1-.081-.182-.181-.182h-3.68c-.101 0-.182.082-.182.182zm3.862-20.031h-3.68c-.101 0-.182.081-.182.181V14.9c0 .1.081.181.181.181h3.68c.101 0 .182-.08.182-.18v-2.593c0-.1-.081-.181-.181-.181M9.695 27.847c0 .1.082.181.182.181h3.698c.1 0 .182-.08.182-.18v-2.593c0-.1-.082-.181-.182-.181H9.877c-.1 0-.182.081-.182.181zm5.422 4.311c0 .1.082.182.182.182h3.68c.1 0 .182-.081.182-.182v-2.587c0-.1-.081-.182-.181-.182h-3.681c-.1 0-.181.082-.181.182zm0-12.942c0 .1.082.181.182.181h3.68c.1 0 .182-.081.182-.181v-2.592c0-.1-.081-.182-.181-.182h-3.681c-.1 0-.181.082-.181.182zm.182-4.134h3.68c.1 0 .182-.082.182-.182v-2.592c0-.1-.081-.181-.181-.181h-3.681c-.1 0-.181.081-.181.181V14.9c0 .1.08.182.18.182m-.181 8.45c0 .1.08.18.18.18h3.682c.1 0 .181-.08.181-.18v-2.593c0-.1-.081-.18-.181-.18h-3.681c-.1 0-.181.08-.181.18zm0 4.315c0 .1.08.181.18.181h3.682c.1 0 .181-.08.181-.18v-2.593c0-.1-.081-.181-.181-.181h-3.681c-.1 0-.181.081-.181.181z"/><path fill="#C6D0DA" d="M31.33 27.847c0 .1.081.181.182.181h3.68c.1 0 .182-.08.182-.181v-2.592a.2.2 0 0 0-.005-.041 7.3 7.3 0 0 0-4.039 2.438z"/><path fill="#61A2F9" d="M44.175 1.987H.913A.913.913 0 0 0 0 2.899v4.42h45.088v-4.42a.913.913 0 0 0-.913-.912"/><path fill="#DA4A54" d="M4.309 19.216v-2.592c0-.1.08-.182.181-.182h3.663c.1 0 .181.082.181.182v2.592c0 .1-.081.181-.181.181H4.49a.18.18 0 0 1-.181-.181m0 4.316c0 .1.08.18.181.18h3.663c.1 0 .181-.08.181-.18v-2.593c0-.1-.081-.18-.181-.18H4.49c-.1 0-.181.08-.181.18zm0 8.626c0 .1.08.182.181.182h3.663c.1 0 .181-.081.181-.182v-2.587c0-.1-.081-.182-.181-.182H4.49c-.1 0-.181.082-.181.182zm0-4.31c0 .1.08.18.181.18h3.663c.1 0 .181-.08.181-.18v-2.593c0-.1-.081-.181-.181-.181H4.49c-.1 0-.181.08-.181.181z"/><path fill="#fff" d="M5.028 4.881H3.88a.91.91 0 0 1-.91-.909V.91A.91.91 0 0 1 3.88 0h1.148a.91.91 0 0 1 .91.91v3.062a.91.91 0 0 1-.91.91M10.982 4.881H9.925a.91.91 0 0 1-.91-.909V.91A.91.91 0 0 1 9.926 0h1.057a.91.91 0 0 1 .91.91v3.062a.91.91 0 0 1-.91.91M17.027 4.881H15.97a.91.91 0 0 1-.91-.909V.91A.91.91 0 0 1 15.97 0h1.057a.91.91 0 0 1 .91.91v3.062a.91.91 0 0 1-.91.91M23.074 4.881h-1.057a.91.91 0 0 1-.91-.909V.91a.91.91 0 0 1 .91-.909h1.057a.91.91 0 0 1 .909.91v3.062a.91.91 0 0 1-.91.91M29.119 4.881h-1.057a.91.91 0 0 1-.91-.909V.91a.91.91 0 0 1 .91-.909h1.057a.91.91 0 0 1 .909.91v3.062a.91.91 0 0 1-.91.91M35.164 4.881h-1.058a.91.91 0 0 1-.909-.909V.91a.91.91 0 0 1 .91-.909h1.057a.91.91 0 0 1 .909.91v3.062a.91.91 0 0 1-.91.91"/><path fill="#5490F9" d="M44.175 1.987h-2.057l-.545 1.44c0 .497-.348 1.454-.348 1.454V7.32h3.863v-4.42a.913.913 0 0 0-.913-.912"/><path fill="#fff" d="M41.209 4.881H40.15a.91.91 0 0 1-.909-.909V.91a.91.91 0 0 1 .91-.909h1.056a.91.91 0 0 1 .91.91v3.062a.91.91 0 0 1-.91.91"/><path fill="#80E29D" d="M40.744 41.497a7.256 7.256 0 1 0 0-14.511 7.256 7.256 0 0 0 0 14.511"/><path fill="#78D090" d="M41.91 27.079a7.256 7.256 0 0 1-6.193 12.394A7.256 7.256 0 1 0 41.91 27.08"/><path fill="#F6F9F9" d="m44.862 32.683-1.371-1.371a.37.37 0 0 0-.522 0l-2.653 2.653a.37.37 0 0 1-.521 0L38.52 32.69a.37.37 0 0 0-.522 0l-1.371 1.372a.37.37 0 0 0 0 .522l3.167 3.166a.37.37 0 0 0 .521 0l4.546-4.545a.37.37 0 0 0 0-.522"/><path fill="#E7ECF1" d="M44.128 31.95q.01.18.01.36c0 .643-.084 1.267-.241 1.86l.965-.965a.37.37 0 0 0 0-.522z"/></svg>