<svg xmlns="http://www.w3.org/2000/svg" width="135" height="156" fill="none"><path fill="#FF553E" d="M9.082 1.246a1 1 0 1 1 1.753.962zm39.486 82.641.22-.975zm85.253 62.674c.423.355.479.985.125 1.409l-5.777 6.901a1 1 0 1 1-1.534-1.283l5.135-6.135-6.134-5.135a1 1 0 1 1 1.283-1.534zM10.835 2.208C4.922 12.982-.22 29.911 3.403 45.725 5.21 53.61 9.196 61.23 16.38 67.711c7.192 6.488 17.633 11.874 32.407 15.2l-.439 1.952c-15.024-3.383-25.803-8.897-33.307-15.667C7.529 62.42 3.345 54.426 1.454 46.172-2.318 29.71 3.033 12.268 9.082 1.246zm37.952 80.704c18.453 4.154 31.64 1.793 40.322-3.578 8.677-5.368 12.981-13.816 13.562-22.129.583-8.335-2.577-16.46-8.746-21.218-6.126-4.726-15.416-6.278-27.427-1.089l-.793-1.836c12.52-5.409 22.616-3.925 29.442 1.34 6.783 5.234 10.141 14.055 9.519 22.943-.623 8.91-5.245 17.96-14.505 23.69-9.255 5.725-23.017 8.06-41.813 3.828zm17.711-48.014c-11.924 5.152-18.784 15.04-21.126 26.948-2.347 11.935-.146 25.902 6.123 39.045 12.531 26.269 41.201 49.024 81.595 45.441l.177 1.992c-41.337 3.667-70.737-19.655-83.577-46.572-6.416-13.45-8.726-27.855-6.28-40.292 2.451-12.466 9.688-22.951 22.295-28.398z" opacity=".2"/></svg>